<mxfile host="app.diagrams.net" modified="2020-12-23T14:17:57.545Z" agent="5.0 (Windows NT 10.0; Win64; x64) AppleWebKit/537.36 (KHTML, like Gecko) Chrome/87.0.4280.88 Safari/537.36" etag="VC3YzVxnieHbl0JQS8-R" version="14.1.1" type="github">
  <diagram id="23HAWjCR2zySr22wT9QD" name="第 1 页">
    <mxGraphModel dx="1038" dy="1693" grid="1" gridSize="10" guides="1" tooltips="1" connect="1" arrows="1" fold="1" page="1" pageScale="1" pageWidth="827" pageHeight="1169" math="0" shadow="0">
      <root>
        <mxCell id="0" />
        <mxCell id="1" parent="0" />
        <mxCell id="kN0nFghE7EiiCAZL-aSs-1" value="&lt;div style=&quot;font-size: 15px&quot;&gt;`ifndef MY_ENV__SV&lt;/div&gt;&lt;div style=&quot;font-size: 15px&quot;&gt;`define MY_ENV__SV&lt;/div&gt;&lt;div style=&quot;font-size: 15px&quot;&gt;&lt;br style=&quot;font-size: 15px&quot;&gt;&lt;/div&gt;&lt;div style=&quot;font-size: 15px&quot;&gt;&lt;font color=&quot;#ff0000&quot;&gt;class my_env extends uvm_env;&lt;/font&gt;&lt;/div&gt;&lt;div style=&quot;font-size: 15px&quot;&gt;&lt;br style=&quot;font-size: 15px&quot;&gt;&lt;/div&gt;&lt;div style=&quot;font-size: 15px&quot;&gt;&amp;nbsp; &amp;nbsp;my_agent&amp;nbsp; &amp;nbsp;i_agt;&lt;/div&gt;&lt;div style=&quot;font-size: 15px&quot;&gt;&amp;nbsp; &amp;nbsp;my_agent&amp;nbsp; &amp;nbsp;o_agt;&lt;/div&gt;&lt;div style=&quot;font-size: 15px&quot;&gt;&amp;nbsp; &amp;nbsp;my_model&amp;nbsp; &amp;nbsp;mdl;&lt;/div&gt;&lt;div style=&quot;font-size: 15px&quot;&gt;&amp;nbsp; &amp;nbsp;my_scoreboard scb;&lt;/div&gt;&lt;div style=&quot;font-size: 15px&quot;&gt;&amp;nbsp; &amp;nbsp;&lt;/div&gt;&lt;div style=&quot;font-size: 15px&quot;&gt;&amp;nbsp; &amp;nbsp;uvm_tlm_analysis_fifo #(my_transaction) agt_scb_fifo;&lt;/div&gt;&lt;div style=&quot;font-size: 15px&quot;&gt;&amp;nbsp; &amp;nbsp;uvm_tlm_analysis_fifo #(my_transaction) agt_mdl_fifo;&lt;/div&gt;&lt;div style=&quot;font-size: 15px&quot;&gt;&amp;nbsp; &amp;nbsp;uvm_tlm_analysis_fifo #(my_transaction) mdl_scb_fifo;&lt;/div&gt;&lt;div style=&quot;font-size: 15px&quot;&gt;&amp;nbsp; &amp;nbsp;&lt;/div&gt;&lt;div style=&quot;font-size: 15px&quot;&gt;&lt;font color=&quot;#336600&quot;&gt;//这是干什么用的？&lt;/font&gt;&lt;/div&gt;&lt;div style=&quot;font-size: 15px&quot;&gt;&amp;nbsp; &lt;font color=&quot;#ff0000&quot;&gt;&amp;nbsp;function new(string name = &quot;my_env&quot;, uvm_component parent);&lt;/font&gt;&lt;/div&gt;&lt;div style=&quot;font-size: 15px&quot;&gt;&lt;font color=&quot;#ff0000&quot;&gt;&amp;nbsp; &amp;nbsp; &amp;nbsp; super.new(name, parent);&lt;/font&gt;&lt;/div&gt;&lt;div style=&quot;font-size: 15px&quot;&gt;&lt;font color=&quot;#ff0000&quot;&gt;&amp;nbsp; &amp;nbsp;endfunction&lt;/font&gt;&lt;/div&gt;&lt;div style=&quot;font-size: 15px&quot;&gt;&lt;br style=&quot;font-size: 15px&quot;&gt;&lt;/div&gt;&lt;div style=&quot;font-size: 15px&quot;&gt;&amp;nbsp; &amp;nbsp;&lt;font color=&quot;#ff0000&quot;&gt;virtual function void build_phase(uvm_phase phase);&lt;/font&gt;&lt;/div&gt;&lt;div style=&quot;font-size: 15px&quot;&gt;&amp;nbsp; &amp;nbsp; &amp;nbsp; super.build_phase(phase);&lt;/div&gt;&lt;div style=&quot;font-size: 15px&quot;&gt;&amp;nbsp; &amp;nbsp; &amp;nbsp; i_agt = my_agent::type_id::create(&quot;i_agt&quot;, this);&lt;/div&gt;&lt;div style=&quot;font-size: 15px&quot;&gt;&amp;nbsp; &amp;nbsp; &amp;nbsp; o_agt = my_agent::type_id::create(&quot;o_agt&quot;, this);&lt;/div&gt;&lt;div style=&quot;font-size: 15px&quot;&gt;&amp;nbsp; &amp;nbsp; &amp;nbsp; i_agt.is_active = UVM_ACTIVE;&lt;/div&gt;&lt;div style=&quot;font-size: 15px&quot;&gt;&amp;nbsp; &amp;nbsp; &amp;nbsp; o_agt.is_active = UVM_PASSIVE;&lt;/div&gt;&lt;div style=&quot;font-size: 15px&quot;&gt;&amp;nbsp; &amp;nbsp; &amp;nbsp; mdl = my_model::type_id::create(&quot;mdl&quot;, this);&lt;/div&gt;&lt;div style=&quot;font-size: 15px&quot;&gt;&amp;nbsp; &amp;nbsp; &amp;nbsp; scb = my_scoreboard::type_id::create(&quot;scb&quot;, this);&lt;/div&gt;&lt;div style=&quot;font-size: 15px&quot;&gt;&amp;nbsp; &amp;nbsp; &amp;nbsp; agt_scb_fifo = new(&quot;agt_scb_fifo&quot;, this);&lt;/div&gt;&lt;div style=&quot;font-size: 15px&quot;&gt;&amp;nbsp; &amp;nbsp; &amp;nbsp; agt_mdl_fifo = new(&quot;agt_mdl_fifo&quot;, this);&lt;/div&gt;&lt;div style=&quot;font-size: 15px&quot;&gt;&amp;nbsp; &amp;nbsp; &amp;nbsp; mdl_scb_fifo = new(&quot;mdl_scb_fifo&quot;, this);&lt;/div&gt;&lt;div style=&quot;font-size: 15px&quot;&gt;&lt;br style=&quot;font-size: 15px&quot;&gt;&lt;/div&gt;&lt;div style=&quot;font-size: 15px&quot;&gt;&amp;nbsp; &lt;font color=&quot;#ff3333&quot;&gt;&amp;nbsp;endfunction&lt;/font&gt;&lt;/div&gt;&lt;div style=&quot;font-size: 15px&quot;&gt;&lt;br style=&quot;font-size: 15px&quot;&gt;&lt;/div&gt;&lt;div style=&quot;font-size: 15px&quot;&gt;&amp;nbsp; &amp;nbsp;extern virtual function void connect_phase(uvm_phase phase);&lt;/div&gt;&lt;div style=&quot;font-size: 15px&quot;&gt;&amp;nbsp; &amp;nbsp;&lt;/div&gt;&lt;div style=&quot;font-size: 15px&quot;&gt;&amp;nbsp; &amp;nbsp;&lt;font color=&quot;#ff0000&quot;&gt;`uvm_component_utils(my_env)&lt;/font&gt;&lt;/div&gt;&lt;div style=&quot;font-size: 15px&quot;&gt;&lt;font color=&quot;#ff0000&quot;&gt;endclass&lt;/font&gt;&lt;/div&gt;&lt;div style=&quot;font-size: 15px&quot;&gt;&lt;br style=&quot;font-size: 15px&quot;&gt;&lt;/div&gt;&lt;div style=&quot;font-size: 15px&quot;&gt;function void my_env::connect_phase(uvm_phase phase);&lt;/div&gt;&lt;div style=&quot;font-size: 15px&quot;&gt;&amp;nbsp; &amp;nbsp;super.connect_phase(phase);&lt;/div&gt;&lt;div style=&quot;font-size: 15px&quot;&gt;&amp;nbsp; &amp;nbsp;i_agt.ap.connect(agt_mdl_fifo.analysis_export);&lt;/div&gt;&lt;div style=&quot;font-size: 15px&quot;&gt;&amp;nbsp; &amp;nbsp;mdl.port.connect(agt_mdl_fifo.blocking_get_export);&lt;/div&gt;&lt;div style=&quot;font-size: 15px&quot;&gt;&amp;nbsp; &amp;nbsp;mdl.ap.connect(mdl_scb_fifo.analysis_export);&lt;/div&gt;&lt;div style=&quot;font-size: 15px&quot;&gt;&amp;nbsp; &amp;nbsp;scb.exp_port.connect(mdl_scb_fifo.blocking_get_export);&lt;/div&gt;&lt;div style=&quot;font-size: 15px&quot;&gt;&amp;nbsp; &amp;nbsp;o_agt.ap.connect(agt_scb_fifo.analysis_export);&lt;/div&gt;&lt;div style=&quot;font-size: 15px&quot;&gt;&amp;nbsp; &amp;nbsp;scb.act_port.connect(agt_scb_fifo.blocking_get_export);&amp;nbsp;&lt;/div&gt;&lt;div style=&quot;font-size: 15px&quot;&gt;endfunction&lt;/div&gt;&lt;div style=&quot;font-size: 15px&quot;&gt;&lt;br style=&quot;font-size: 15px&quot;&gt;&lt;/div&gt;&lt;div style=&quot;font-size: 15px&quot;&gt;`endif&lt;/div&gt;" style="rounded=0;whiteSpace=wrap;html=1;align=left;fontSize=15;" vertex="1" parent="1">
          <mxGeometry x="240" y="-270" width="600" height="920" as="geometry" />
        </mxCell>
      </root>
    </mxGraphModel>
  </diagram>
</mxfile>
